<?xml version="1.0" encoding="UTF-8"?>
<svg id="Capa_1" data-name="Capa 1" xmlns="http://www.w3.org/2000/svg" viewBox="0 0 237.58 246.26">
  <defs>
    <style>
      .cls-1 {
        fill: #fff;
      }
    </style>
  </defs>
  <path class="cls-1" d="M108.82,246.26c-2.93-.22-5.45-.33-7.96-.63-3.17-.38-6.34-.85-9.48-1.43-.78-.14-1.66-.66-2.16-1.28-10.82-13.58-21.32-27.38-29.78-42.6-3.82-6.87-7.09-13.97-8.73-21.71-.77-3.62-1.04-7.29-.5-10.96,.89-6.16,4.01-11.04,8.76-14.94,3.8-3.13,8.12-5.37,12.66-7.22,8.4-3.42,17.16-5.64,26.08-7.11,10.09-1.66,20.24-2.94,30.36-4.36,6.99-.98,13.85-2.45,20.35-5.29,3.76-1.64,7.27-3.7,10.19-6.64,5.18-5.23,6.8-11.39,4.75-18.49-1.12-3.9-3.12-7.34-5.61-10.51-4.29-5.48-9.61-9.8-15.48-13.47-7.24-4.52-15.05-7.72-23.24-10.05-9.99-2.84-19.99-5.62-29.93-8.64-6.9-2.09-13.51-4.93-19.71-8.65-11.57-6.94-19.27-16.84-22.9-29.86-.17-.6-.27-1.22-.45-2.05C74.59,2.02,105.43-3.76,138.58,2.33c.16,.24,.33,.49,.49,.73-.54,.33-1.11,.6-1.6,.99-.62,.5-1.17,1.09-1.73,1.66-7.54,7.61-10.23,16.51-7.41,27,1.81,6.75,4.9,12.81,9.17,18.3,4.34,5.59,9.46,10.41,15.01,14.77,3.39,2.67,6.88,5.21,10.39,7.73,8.01,5.76,15.52,12.08,22.03,19.53,4.33,4.96,8.14,10.29,10.74,16.38,2.67,6.24,3.89,12.66,2.09,19.4-1.3,4.84-3.89,8.9-7.36,12.45-3.78,3.88-8.22,6.85-12.96,9.38-6.16,3.29-12.67,5.69-19.32,7.77-11.75,3.67-23.47,7.43-34.7,12.5-4.43,2-8.78,4.25-12.98,6.71-2.95,1.73-5.73,3.82-8.31,6.07-8.69,7.56-11.59,17.1-9.28,28.32,1.32,6.39,3.71,12.4,6.74,18.14,2.47,4.66,5.22,9.16,7.85,13.73,.38,.67,.77,1.34,1.37,2.4Z"/>
  <path class="cls-1" d="M8.74,59.61c.34,.58,.56,.9,.72,1.25,2.63,5.8,3.53,11.54,15.03,20.39,4.98,3.83,16.41,5.24,27.89,4.2,14.89-1.35,35.55-4.23,44.09-3.13,18.2,2.35,20.72,8.87,20.72,17.22,0,6.34-6.23,14.74-12.5,17.69-14.48,6.83-27,8.2-33.46,8.59-7.82,.47-27.32,1.46-31.42,2.72-11.79,3.62-17.23,13.92-19.25,26.04-2.68,16.1,3.89,28.93,12.13,42.85,4.5,7.61,10.11,14.48,16.24,20.82,6.95,7.18,24.01,19.94,25,20.81-7.03-.17-30.22-13.6-41.8-23.95-6.49-5.8-12.27-12.13-17.33-19.01-4.81-6.54-9.37-12.71-11.68-19.39-6.1-17.66-3.67-39.39,11.16-51.67,15.68-12.98,31.85-6.85,44.63-7.5s15.36-9.74,15.65-13.83c.34-4.68-6.21-10.19-19.3-9.13-11.46,.93-23.74,1.3-36.78-8.35-9.69-7.17-9.82-18.38-9.73-26.62Z"/>
  <path class="cls-1" d="M124.47,245.65c-3.63-7.23-6.55-14.57-7.17-22.53-.81-10.51,3.74-20.85,12.53-26.67,4.43-2.94,9.38-4.55,14.49-5.81,11.48-2.83,22.97-5.58,34.38-8.68,8.26-2.24,16.21-5.44,23.74-9.57,5.07-2.78,9.8-6.03,13.88-10.17,8.39-8.53,11.79-18.76,10.45-30.63-.73-6.45-2.61-12.57-5.13-18.53-4.27-10.08-10.3-19.32-17.55-27.52-3.95-4.47-8-8.86-11.99-13.3-5.2-5.78-10.03-11.82-13.85-18.63-2.33-4.14-3.45-8.56-3.52-13.29-.09-6.19,1.28-12.04,3.77-17.67,.48-1.09,1.04-2.14,1.57-3.21,0,0-.64,20.96,5.36,29.75,9.27,13.57,19.15,15.41,26.19,18.8,12.04,5.79,19.76,18.09,23.04,31.04,3.84,15.12,4.04,31.07-.24,50.55-6.03,27.46-12.85,38.99-29.77,53.56-2.58,2.22-5.53,3.99-8.71,5.23-6.95,2.71-20.65,7.64-31.39,4.13-14.99-4.91-28.17-2.93-34.04,2.35-15.83,14.25-6.04,30.82-6.04,30.82Z"/>
</svg>